<?xml version="1.0" encoding="utf-8"?>
<!-- Generator: Adobe Illustrator 24.0.2, SVG Export Plug-In . SVG Version: 6.00 Build 0)  -->
<svg version="1.1" id="Capa_1" xmlns="http://www.w3.org/2000/svg" xmlns:xlink="http://www.w3.org/1999/xlink" x="0px" y="0px"
	 viewBox="0 0 512 512" style="enable-background:new 0 0 512 512;" xml:space="preserve">
<style type="text/css">
	.st0{fill:#FFFFFF;}
	.st1{display:none;fill:#FFFFFF;}
</style>
<g>
	<path class="st0" d="M0,0v512h512V0H0z M380.8,350.5c-19.6,26.8-45,45.4-76,55.7c-3.6,0.7-6.3,0.2-7.9-1.4c-1.7-1.6-2.5-3.6-2.5-6
		v-42.4c0-13-3.5-22.5-10.5-28.5c7.6-0.8,14.5-2,20.6-3.6c6.1-1.6,12.4-4.2,18.9-7.8c6.5-3.6,11.9-8.1,16.3-13.4
		c4.4-5.3,7.9-12.3,10.6-21.1c2.7-8.8,4.1-18.9,4.1-30.2c0-16.2-5.3-30-15.9-41.4c5-12.2,4.4-25.8-1.6-41c-3.8-1.2-9.2-0.5-16.3,2.2
		c-7.1,2.7-13.3,5.6-18.5,8.8l-7.6,4.8c-12.5-3.5-25.3-5.2-38.6-5.2c-13.3,0-26.1,1.7-38.6,5.2c-2.1-1.5-5-3.3-8.5-5.4
		s-9.1-4.7-16.8-7.7c-7.6-3-13.4-3.9-17.3-2.7c-5.9,15.1-6.4,28.8-1.4,41c-10.6,11.4-15.9,25.2-15.9,41.4c0,11.4,1.4,21.4,4.1,30.1
		c2.8,8.7,6.3,15.7,10.5,21.1c4.3,5.4,9.7,9.8,16.2,13.5c6.5,3.6,12.8,6.2,18.9,7.8c6.1,1.6,13,2.8,20.6,3.6
		c-5.3,4.8-8.6,11.7-9.8,20.7c-2.8,1.3-5.8,2.3-9,3c-3.2,0.7-7,1-11.5,1c-4.4,0-8.8-1.4-13.2-4.3s-8.1-7.1-11.1-12.5
		c-2.5-4.3-5.8-7.8-9.8-10.4c-4-2.7-7.3-4.3-9.9-4.8l-4-0.6c-2.8,0-4.8,0.3-5.8,0.9c-1.1,0.6-1.4,1.4-1,2.3c0.4,0.9,1,1.9,1.8,2.8
		c0.8,0.9,1.7,1.7,2.6,2.4l1.4,1c2.9,1.3,5.9,3.9,8.7,7.6s5,7.2,6.3,10.2l2,4.6c1.7,5.1,4.7,9.2,8.8,12.3s8.6,5.2,13.5,6
		c4.8,0.9,9.5,1.3,14,1.4c4.5,0.1,8.2-0.2,11.2-0.7l4.6-0.8c0,5.1,0,11,0.1,17.9c0.1,6.8,0.1,10.4,0.1,10.9c0,2.4-0.9,4.4-2.6,6
		c-1.7,1.6-4.4,2.1-8,1.4c-31.1-10.3-56.4-28.9-76-55.7c-19.6-26.9-29.4-57.1-29.4-90.7c0-28,6.9-53.8,20.7-77.4
		c13.8-23.6,32.5-42.4,56.1-56.2c23.6-13.8,49.5-20.7,77.4-20.7s53.8,6.9,77.4,20.7c23.6,13.8,42.3,32.5,56.1,56.2
		c13.8,23.6,20.7,49.4,20.7,77.4C410.3,293.4,400.5,323.6,380.8,350.5z"/>
	<path class="st1" d="M410.3,259.8c0,33.6-9.8,63.8-29.4,90.7c-19.6,26.8-45,45.4-76,55.7c-3.6,0.7-6.3,0.2-7.9-1.4
		c-1.7-1.6-2.5-3.6-2.5-6v-42.4c0-13-3.5-22.5-10.5-28.5c7.6-0.8,14.5-2,20.6-3.6c6.1-1.6,12.4-4.2,18.9-7.8
		c6.5-3.6,11.9-8.1,16.3-13.4c4.4-5.3,7.9-12.3,10.6-21.1c2.7-8.8,4.1-18.9,4.1-30.2c0-16.2-5.3-30-15.9-41.4
		c5-12.2,4.4-25.8-1.6-41c-3.8-1.2-9.2-0.5-16.3,2.2c-7.1,2.7-13.3,5.6-18.5,8.8l-7.6,4.8c-12.5-3.5-25.3-5.2-38.6-5.2
		c-13.3,0-26.1,1.7-38.6,5.2c-2.1-1.5-5-3.3-8.5-5.4s-9.1-4.7-16.8-7.7c-7.6-3-13.4-3.9-17.3-2.7c-5.9,15.1-6.4,28.8-1.4,41
		c-10.6,11.4-15.9,25.2-15.9,41.4c0,11.4,1.4,21.4,4.1,30.1c2.8,8.7,6.3,15.7,10.5,21.1c4.3,5.4,9.7,9.8,16.2,13.5
		c6.5,3.6,12.8,6.2,18.9,7.8c6.1,1.6,13,2.8,20.6,3.6c-5.3,4.8-8.6,11.7-9.8,20.7c-2.8,1.3-5.8,2.3-9,3c-3.2,0.7-7,1-11.5,1
		c-4.4,0-8.8-1.4-13.2-4.3s-8.1-7.1-11.1-12.5c-2.5-4.3-5.8-7.8-9.8-10.4c-4-2.7-7.3-4.3-9.9-4.8l-4-0.6c-2.8,0-4.8,0.3-5.8,0.9
		c-1.1,0.6-1.4,1.4-1,2.3c0.4,0.9,1,1.9,1.8,2.8c0.8,0.9,1.7,1.7,2.6,2.4l1.4,1c2.9,1.3,5.9,3.9,8.7,7.6s5,7.2,6.3,10.2l2,4.6
		c1.7,5.1,4.7,9.2,8.8,12.3s8.6,5.2,13.5,6c4.8,0.9,9.5,1.3,14,1.4c4.5,0.1,8.2-0.2,11.2-0.7l4.6-0.8c0,5.1,0,11,0.1,17.9
		c0.1,6.8,0.1,10.4,0.1,10.9c0,2.4-0.9,4.4-2.6,6c-1.7,1.6-4.4,2.1-8,1.4c-31.1-10.3-56.4-28.9-76-55.7
		c-19.6-26.9-29.4-57.1-29.4-90.7c0-28,6.9-53.8,20.7-77.4c13.8-23.6,32.5-42.4,56.1-56.2c23.6-13.8,49.5-20.7,77.4-20.7
		s53.8,6.9,77.4,20.7c23.6,13.8,42.3,32.5,56.1,56.2C403.4,206,410.3,231.8,410.3,259.8z"/>
</g>
</svg>
